# xmcd
#
# Track frame offsets: 
#        150
#        19658
#        41954
#        64125
#        100106
#        140437
#        176183
#
# Disc length: 2773 seconds
#
# Revision: 1
# Processed by: cddbd v1.5.2PL0 Copyright (c) Steve Scherf et al.
# Submitted via: ExactAudioCopy v0.99pb5
#
DISCID=600ad307
DTITLE=Daryl Johnson - From the Inside
DYEAR=2003
DGENRE=Jazz
TTITLE0=Enter the Temple
TTITLE1=The Wizard
TTITLE2=The Temple
TTITLE3=Shine
TTITLE4=Sage Walk
TTITLE5=Griot
TTITLE6=You Don't Know What Love Is
EXTD=YEAR: 2003
EXTT0=
EXTT1=
EXTT2=
EXTT3=
EXTT4=
EXTT5=
EXTT6=
PLAYORDER=
